<svg xmlns="http://www.w3.org/2000/svg" shape-rendering="geometricPrecision" text-rendering="geometricPrecision" image-rendering="optimizeQuality" fill-rule="evenodd" clip-rule="evenodd" viewBox="0 0 512 436.4"><path fill-rule="nonzero" d="M15.95 0H512v53.97H0V0h15.95zM11.4 212.81l91.62-78.64c2.96-2.53 7.43-2.18 9.96.78a7.05 7.05 0 0 1 1.7 4.6l.02 157.3c0 3.92-3.17 7.09-7.09 7.09-1.96 0-3.73-.79-5.01-2.08l-91.25-78.28c-2.96-2.53-3.31-7-.77-9.96l.82-.81zM202 254.96h310v53.97H186.05v-53.97H202zm0-127.48h310v53.96H186.05v-53.96H202zM15.95 382.43H512v53.97H0v-53.97h15.95z"/></svg>