<?xml version="1.0" encoding="UTF-8"?>
<svg xmlns="http://www.w3.org/2000/svg" xmlns:xlink="http://www.w3.org/1999/xlink" width="24px" height="22px" viewBox="0 0 23 22" version="1.1">
<g id="surface1">
<path style=" stroke:none;fill-rule:evenodd;fill:rgb(0%,0%,0%);fill-opacity:1;" d="M 3.503906 14.164062 L 11.078125 6.34375 C 11.476562 5.929688 11.527344 5.914062 11.941406 6.34375 L 19.496094 14.164062 L 19.496094 22.003906 L 13.886719 22.003906 L 13.886719 16.707031 C 13.882812 16.347656 13.601562 16.058594 13.253906 16.054688 L 9.75 16.054688 C 9.402344 16.058594 9.121094 16.347656 9.117188 16.707031 L 9.117188 22.003906 L 3.507812 22.003906 L 3.507812 14.164062 Z M 11.261719 0.167969 L 0.0078125 11.078125 L 2.785156 12.578125 L 10.734375 4.304688 C 11.414062 3.601562 11.421875 3.585938 12.097656 4.277344 L 20.214844 12.574219 L 22.992188 11.074219 L 11.722656 0.152344 C 11.519531 -0.0390625 11.488281 -0.0664062 11.261719 0.167969 Z M 11.261719 0.167969 "/>
</g>
</svg>
