<?xml version="1.0" encoding="UTF-8"?>
<svg xmlns="http://www.w3.org/2000/svg" xmlns:xlink="http://www.w3.org/1999/xlink" width="24px" height="24px" viewBox="0 0 24 24" version="1.1">
<g id="surface1">
<path style=" stroke:none;fill-rule:nonzero;fill:rgb(0%,0%,0%);fill-opacity:1;" d="M 17.765625 13.410156 L 10.796875 13.410156 C 9.757812 13.382812 8.9375 12.761719 8.9375 12 C 8.9375 11.242188 9.757812 10.617188 10.796875 10.589844 L 17.765625 10.589844 L 15.503906 8.738281 C 14.800781 8.164062 14.859375 7.277344 15.636719 6.753906 C 16.011719 6.507812 16.503906 6.375 17.007812 6.394531 C 17.511719 6.414062 17.984375 6.578125 18.320312 6.855469 L 23.46875 11.058594 C 24.125 11.601562 24.117188 12.421875 23.453125 12.957031 L 18.320312 17.144531 C 17.984375 17.421875 17.511719 17.585938 17.007812 17.605469 C 16.503906 17.625 16.011719 17.496094 15.636719 17.242188 C 14.859375 16.722656 14.800781 15.835938 15.503906 15.261719 L 17.765625 13.414062 Z M 10.75 0.0273438 C 11.792969 -0.125 12.808594 0.371094 13.015625 1.136719 C 13.226562 1.898438 12.546875 2.640625 11.503906 2.796875 L 10.597656 2.929688 C 6.238281 3.5625 3.898438 3.921875 3.898438 8.335938 L 3.898438 16.0625 C 3.898438 20.164062 6.390625 20.507812 10.519531 21.074219 L 11.488281 21.207031 C 12.53125 21.351562 13.214844 22.089844 13.015625 22.855469 C 12.816406 23.621094 11.808594 24.121094 10.765625 23.976562 L 9.8125 23.84375 C 3.71875 23.007812 0.0429688 22.507812 0.0429688 16.0625 L 0.0429688 8.335938 C 0.0429688 1.609375 3.46875 1.085938 9.847656 0.160156 Z M 10.75 0.0273438 "/>
</g>
</svg>
