<?xml version="1.0" encoding="UTF-8"?>
<svg xmlns="http://www.w3.org/2000/svg" xmlns:xlink="http://www.w3.org/1999/xlink" width="23px" height="18px" viewBox="0 0 23 18" version="1.1">
<g id="surface1">
<path style=" stroke:none;fill-rule:evenodd;fill:rgb(0%,0%,0%);fill-opacity:1;" d="M 1.992188 0 L 21.007812 0 C 21.894531 0 22.625 0.753906 22.625 1.675781 C 22.625 2.601562 21.894531 3.355469 21.007812 3.355469 L 1.992188 3.355469 C 1.105469 3.355469 0.375 2.601562 0.375 1.675781 C 0.375 0.753906 1.105469 0 1.992188 0 Z M 1.992188 14.644531 L 21.007812 14.644531 C 21.894531 14.644531 22.625 15.398438 22.625 16.324219 C 22.625 17.246094 21.894531 18 21.007812 18 L 1.992188 18 C 1.105469 18 0.375 17.246094 0.375 16.324219 C 0.375 15.398438 1.105469 14.644531 1.992188 14.644531 Z M 1.992188 7.320312 L 21.007812 7.320312 C 21.894531 7.320312 22.625 8.078125 22.625 9 C 22.625 9.921875 21.894531 10.675781 21.007812 10.675781 L 1.992188 10.675781 C 1.105469 10.675781 0.375 9.921875 0.375 9 C 0.375 8.078125 1.105469 7.320312 1.992188 7.320312 Z M 1.992188 7.320312 "/>
</g>
</svg>
