<svg xmlns="http://www.w3.org/2000/svg" shape-rendering="geometricPrecision" text-rendering="geometricPrecision" image-rendering="optimizeQuality" fill-rule="evenodd" clip-rule="evenodd" viewBox="0 0 512 436.4"><path fill-rule="nonzero" d="M15.95 0H512v53.97H0V0h15.95zm4.6 134.17 91.62 78.64.82.81a7.056 7.056 0 0 1-.78 9.96l-91.24 78.28a7.048 7.048 0 0 1-5.02 2.08 7.09 7.09 0 0 1-7.09-7.09v-157.3a7.18 7.18 0 0 1 1.72-4.6c2.54-2.96 7.01-3.31 9.97-.78zM202 254.96h310v53.97H186.05v-53.97H202zm0-127.48h310v53.96H186.05v-53.96H202zM15.95 382.43H512v53.97H0v-53.97h15.95z"/></svg>