<?xml version="1.0" encoding="UTF-8"?>
<svg xmlns="http://www.w3.org/2000/svg" xmlns:xlink="http://www.w3.org/1999/xlink" width="24px" height="24px" viewBox="0 0 24 24" version="1.1">
<g id="surface1">
<path style=" stroke:none;fill-rule:evenodd;fill:rgb(0%,0%,0%);fill-opacity:1;" d="M 19.820312 2.867188 L 21.542969 4.589844 C 21.996094 5.042969 21.996094 5.78125 21.542969 6.234375 L 20.15625 7.621094 C 20.539062 8.335938 20.832031 9.105469 21.015625 9.914062 L 22.8125 9.914062 C 23.453125 9.914062 23.976562 10.4375 23.976562 11.078125 L 23.976562 13.511719 C 23.976562 14.152344 23.453125 14.675781 22.8125 14.675781 L 20.851562 14.675781 C 20.613281 15.46875 20.269531 16.21875 19.835938 16.90625 L 21.109375 18.175781 C 21.5625 18.628906 21.5625 19.371094 21.109375 19.820312 L 19.386719 21.542969 C 18.933594 21.996094 18.195312 21.996094 17.742188 21.542969 L 16.355469 20.15625 C 15.640625 20.539062 14.871094 20.832031 14.0625 21.015625 L 14.0625 22.8125 C 14.0625 23.453125 13.539062 23.976562 12.898438 23.976562 L 10.464844 23.976562 C 9.824219 23.976562 9.300781 23.453125 9.300781 22.8125 L 9.300781 20.851562 C 8.507812 20.613281 7.757812 20.269531 7.070312 19.835938 L 5.800781 21.109375 C 5.347656 21.5625 4.605469 21.5625 4.15625 21.109375 L 2.433594 19.386719 C 1.980469 18.933594 1.980469 18.195312 2.433594 17.742188 L 3.820312 16.355469 C 3.4375 15.640625 3.144531 14.871094 2.960938 14.0625 L 1.164062 14.0625 C 0.523438 14.0625 0 13.539062 0 12.898438 L 0 10.464844 C 0 9.824219 0.523438 9.300781 1.164062 9.300781 L 3.125 9.300781 C 3.363281 8.507812 3.707031 7.757812 4.140625 7.070312 L 2.867188 5.800781 C 2.414062 5.347656 2.414062 4.605469 2.867188 4.15625 L 4.589844 2.433594 C 5.042969 1.980469 5.78125 1.980469 6.234375 2.433594 L 7.621094 3.820312 C 8.335938 3.4375 9.105469 3.144531 9.914062 2.960938 L 9.914062 1.164062 C 9.914062 0.523438 10.4375 0 11.078125 0 L 13.511719 0 C 14.152344 0 14.675781 0.523438 14.675781 1.164062 L 14.675781 3.121094 C 15.46875 3.363281 16.21875 3.707031 16.90625 4.136719 L 18.175781 2.867188 C 18.628906 2.414062 19.371094 2.414062 19.820312 2.867188 Z M 11.988281 7.203125 C 14.628906 7.203125 16.773438 9.347656 16.773438 11.988281 C 16.773438 14.628906 14.628906 16.773438 11.988281 16.773438 C 9.347656 16.773438 7.203125 14.628906 7.203125 11.988281 C 7.203125 9.347656 9.347656 7.203125 11.988281 7.203125 Z M 11.988281 7.203125 "/>
</g>
</svg>
